<svg width="181" height="22" viewBox="0 0 181 22" fill="none" xmlns="http://www.w3.org/2000/svg">
<path id="Vector" d="M67.5482 17.3311V22H86.8811V17.3311H67.5482ZM155.061 3.86222V18.1561L158.486 21.9352L158.545 21.9988H167.481V17.3299H162.135L160.27 15.2717V6.732L161.996 4.66889H167.481V0H158.288L155.061 3.86222ZM123.34 3.86222V18.1561L126.763 21.9352L126.821 21.9988H135.76V17.3299H130.412L128.547 15.2717V6.732L130.274 4.66889H135.76V0H126.568L123.34 3.86222ZM146.057 0H136.859V4.66889H142.345L144.048 6.71244V15.2778L142.189 17.3311H136.859V22H145.807L149.216 18.2356L149.278 18.1696V3.85L146.12 0.0733333L146.057 0.00244444V0ZM177.782 0H168.582V4.66889H174.067L175.77 6.71244V15.2778L173.91 17.3311H168.582V22H177.529L180.938 18.2356L181 18.1696V3.85L177.842 0.0733333L177.782 0.00244444V0ZM92.4475 3.79622L92.3925 3.86344V18.1561L95.8739 22H97.5923V0.00122222H95.6185L92.4452 3.79622H92.4475ZM98.6967 22H118.033V17.3311H98.6967V22ZM65.5664 0H61.2429V22H66.445V0.00122222H65.5664V0ZM17.894 0V22H22.7238L26.1972 18.1696V0.00122222H17.8952L17.894 0ZM3.73117 22H16.792V17.3311H0L3.73117 22ZM85.5167 13.3344V8.66556H67.5482V13.3344H85.5167ZM98.6967 4.66889H118.033V0H98.6967V4.66889ZM67.5482 0V4.66889H86.8811V0H67.5482ZM34.3641 0H39.8514L38.9682 4.66889H38.9636L35.6838 22H30.1999L34.3652 0.00122222L34.3641 0ZM46.7627 0H51.974L56.1382 22H50.6428L47.363 4.66889H40.1527L41.0348 0H46.7627Z" fill="white"/>
</svg>
